<?xml version="1.0" standalone="no"?>
<!DOCTYPE svg PUBLIC "-//W3C//DTD SVG 20010904//EN"
 "http://www.w3.org/TR/2001/REC-SVG-20010904/DTD/svg10.dtd">
<svg version="1.0" xmlns="http://www.w3.org/2000/svg"
 width="1024.000000pt" height="1024.000000pt" viewBox="0 0 1024.000000 1024.000000"
 preserveAspectRatio="xMidYMid meet">
<metadata>
Created by potrace 1.14, written by Peter Selinger 2001-2017
</metadata>
<g transform="translate(0.000000,1024.000000) scale(0.100000,-0.100000)"
fill="#000000" stroke="none">
<path d="M4085 10167 c-66 -40 -158 -100 -205 -133 -104 -73 -253 -171 -382
-249 -53 -33 -94 -64 -91 -69 4 -5 1 -6 -5 -2 -6 4 -36 -9 -67 -29 -30 -19
-58 -35 -61 -35 -3 0 -20 -11 -37 -24 -53 -39 -64 -41 -32 -6 l30 33 -35 -23
c-94 -63 -358 -368 -489 -565 -152 -229 -137 -201 -335 -631 -25 -55 -46 -103
-46 -107 0 -9 -64 -174 -90 -231 -45 -102 -204 -464 -258 -591 -50 -117 -165
-451 -192 -560 -4 -16 -24 -91 -44 -165 -64 -243 -109 -499 -121 -680 -3 -52
-10 -153 -15 -225 -21 -277 -36 -871 -21 -840 5 11 12 37 16 58 3 21 15 46 26
55 30 26 23 49 -13 43 -4 0 -5 6 -1 15 4 12 8 13 13 3 6 -8 9 -6 13 7 4 16 5
17 6 2 0 -10 5 -18 10 -18 6 0 7 -16 4 -35 -6 -39 14 -76 28 -53 5 7 8 27 8
43 -2 30 -2 30 -9 -5 -7 -35 -7 -35 -9 -5 0 17 2 41 6 53 8 33 23 8 23 -39 0
-48 62 -392 94 -521 14 -57 37 -157 51 -223 15 -66 35 -154 47 -195 17 -64 19
-90 13 -190 -6 -110 -5 -119 23 -205 37 -113 47 -153 34 -140 -6 6 -48 68 -95
138 -47 71 -88 124 -91 118 -8 -13 16 -72 47 -113 24 -32 188 -292 297 -471
64 -106 78 -173 54 -266 -17 -65 -23 -77 -92 -194 -28 -48 -50 -87 -48 -87 8
0 105 139 126 180 12 24 30 87 39 139 l17 95 27 -46 c15 -26 27 -50 27 -53 0
-4 -14 -23 -30 -42 -17 -18 -30 -41 -30 -50 0 -9 -20 -61 -45 -115 -25 -55
-51 -124 -57 -154 -7 -33 -16 -54 -24 -54 -8 0 -14 -5 -14 -10 0 -6 71 -81
157 -166 87 -86 148 -151 136 -145 -13 7 -23 15 -23 20 0 4 -17 15 -37 23 -43
17 -173 112 -246 179 -28 25 -54 60 -61 82 l-13 39 -21 -34 c-11 -18 -38 -58
-60 -89 l-40 -57 35 11 c19 6 45 23 58 39 13 15 26 28 28 28 3 0 16 -15 31
-34 l26 -34 -43 -45 c-23 -25 -123 -96 -222 -159 -291 -184 -361 -230 -444
-289 -42 -31 -128 -88 -190 -128 -62 -39 -142 -94 -177 -121 -66 -51 -89 -60
-97 -37 -3 9 -8 9 -23 -3 -10 -8 -6 0 10 18 17 18 26 32 20 32 -15 0 -93 -66
-125 -106 -34 -42 -35 -37 -13 52 15 60 21 68 73 108 31 24 89 65 129 91 39
26 72 49 72 51 0 13 -95 -34 -121 -60 -19 -18 -53 -45 -75 -59 -49 -30 -142
-159 -190 -261 -27 -60 -173 -411 -236 -570 -25 -63 -44 -205 -58 -431 -6 -99
-15 -232 -20 -295 -5 -63 -12 -168 -15 -232 l-7 -118 1566 0 1566 0 -5 428
c-3 235 -7 553 -10 707 -3 154 -2 297 1 318 7 37 7 37 22 16 8 -11 28 -55 44
-97 36 -92 42 -176 58 -802 5 -223 13 -442 16 -487 l6 -83 549 0 c448 0 549 2
549 13 0 7 -7 36 -14 63 -19 63 -22 228 -9 419 6 83 12 155 14 160 3 9 -15
259 -25 367 -3 30 -1 38 12 38 14 0 14 1 0 12 -8 7 -27 51 -41 98 -17 55 -45
115 -79 168 -72 112 -316 472 -336 497 -16 18 -15 18 8 -1 14 -12 81 -57 150
-101 335 -213 476 -276 767 -343 88 -21 96 -21 236 -6 297 31 580 119 890 277
31 16 57 24 57 19 0 -22 -72 -153 -133 -242 -35 -51 -83 -128 -106 -170 -38
-70 -59 -94 -133 -151 -13 -10 4 -4 36 14 l59 32 -7 -94 c-3 -52 -12 -136 -19
-188 -11 -76 -11 -106 -1 -160 19 -96 24 -129 18 -107 -5 15 -8 16 -16 5 -7
-10 -8 -5 -3 15 5 25 4 28 -8 18 -15 -13 -20 -92 -6 -92 5 0 9 7 9 15 0 16 25
21 34 6 3 -4 0 -22 -6 -38 l-12 -31 -17 22 c-18 21 -18 21 -20 -19 -1 -22 -1
-50 0 -63 1 -12 -14 -62 -34 -111 -19 -49 -35 -92 -35 -95 0 -4 16 -22 35 -39
34 -31 36 -36 40 -112 4 -79 4 -80 -10 -40 -8 22 -15 55 -15 73 0 17 -4 32
-10 32 -5 0 -10 -2 -10 -5 0 -4 16 -85 26 -132 l4 -23 542 0 541 0 -7 267 c-4
148 -12 363 -17 478 -28 647 -24 789 22 831 18 16 19 15 36 -22 12 -28 19 -84
25 -199 4 -88 11 -194 16 -235 6 -41 18 -310 28 -597 l18 -523 1338 0 1338 0
0 728 0 727 -45 60 c-72 96 -133 152 -209 193 -39 21 -100 62 -136 90 -151
120 -583 405 -687 453 -51 24 -56 41 -10 33 27 -5 20 2 -38 37 -80 48 -217
114 -257 124 l-28 7 30 44 c38 54 47 60 68 41 19 -16 78 -48 87 -46 3 0 65
-35 138 -78 156 -92 159 -94 127 -59 -13 15 -64 47 -113 71 -199 101 -211 113
-222 230 -7 85 -27 145 -46 145 -7 0 -6 -9 5 -25 11 -16 18 -50 19 -94 2 -64
0 -72 -29 -107 -41 -51 -58 -56 -39 -12 14 36 17 98 4 98 -4 0 -5 10 -2 23 3
16 2 18 -5 8 -8 -11 -11 -9 -17 8 -3 12 -11 19 -16 16 -5 -4 -12 0 -15 8 -4
11 -13 13 -33 7 -62 -17 -143 56 -210 188 -22 44 -45 83 -51 87 -17 10 -60
-45 -102 -133 -22 -46 -41 -82 -44 -80 -5 6 40 171 64 235 19 49 110 190 138
214 10 8 18 8 27 1 10 -9 13 -3 15 26 3 38 107 243 287 562 186 332 310 585
302 618 -3 12 -9 5 -21 -22 -25 -57 -65 -116 -77 -116 -12 0 -6 83 11 150 15
58 52 381 47 406 -2 13 0 21 6 17 5 -3 8 12 6 40 -2 25 -1 43 2 41 7 -4 19
204 19 345 0 80 -8 147 -35 281 -19 96 -48 247 -65 335 -65 339 -73 380 -82
392 -5 7 -7 17 -3 23 3 6 0 24 -9 41 -8 16 -12 37 -9 45 3 7 0 14 -7 14 -7 0
-10 6 -7 13 4 11 -1 38 -33 182 -16 68 -28 102 -29 80 -1 -11 -6 -27 -12 -35
-8 -11 -9 1 -4 44 3 33 1 94 -6 135 -11 76 -64 340 -79 396 -7 27 -8 28 -9 5
0 -31 23 -158 34 -184 7 -15 5 -17 -6 -11 -10 6 -11 5 -4 -3 11 -12 8 -92 -4
-92 -3 0 -16 44 -28 98 -24 113 -77 306 -92 342 -10 22 -11 21 -6 -15 3 -29 2
-34 -5 -20 -12 28 -12 65 1 65 5 0 7 5 3 11 -5 8 -9 8 -14 -1 -6 -9 -11 -7
-19 8 -14 26 -15 54 -1 32 12 -18 12 -2 0 25 -5 11 -9 14 -9 6 -1 -11 -4 -11
-16 -1 -8 7 -12 16 -9 21 3 5 0 18 -6 30 -14 26 -6 36 15 19 9 -8 15 -8 15 -2
0 6 -9 14 -20 17 -11 3 -20 11 -20 16 0 5 -5 9 -11 9 -6 0 -9 -7 -5 -15 3 -8
1 -15 -4 -15 -6 0 -10 15 -10 33 0 24 -3 28 -10 17 -8 -12 -10 -11 -10 6 0 11
5 25 11 31 8 8 8 19 0 40 -11 27 -11 27 -5 -7 4 -26 3 -31 -5 -20 -6 8 -11 24
-11 35 0 31 -56 140 -63 124 -4 -8 -4 0 0 16 3 17 11 37 17 45 9 13 9 13 -6 2
-11 -9 -18 -10 -23 -2 -3 5 -1 10 4 10 6 0 11 5 11 10 0 6 -6 10 -14 10 -8 0
-14 6 -13 13 0 6 -1 23 -2 37 -1 23 -3 24 -15 8 -7 -10 -16 -15 -19 -11 -4 3
-2 12 4 19 7 9 3 28 -17 68 -15 31 -31 56 -36 56 -5 0 -6 -6 -2 -12 5 -9 2 -9
-9 1 -14 11 -17 11 -17 -1 0 -8 5 -19 12 -26 9 -9 9 -12 1 -12 -7 0 -14 8 -18
19 -7 23 4 53 17 45 5 -3 -2 17 -17 45 -14 29 -29 50 -34 47 -4 -3 -8 0 -8 7
0 13 -53 109 -79 142 -10 13 -17 16 -22 9 -5 -9 -10 -8 -19 2 -8 8 -9 15 -3
19 6 3 10 1 10 -5 0 -6 4 -9 9 -5 13 7 -115 231 -129 227 -6 -1 -9 2 -5 7 5 9
-59 139 -75 151 -4 3 -9 13 -13 23 -4 10 -11 16 -16 12 -5 -3 -12 -1 -16 5 -4
6 -11 7 -17 4 -7 -4 -8 -2 -4 5 6 9 11 9 22 0 24 -20 15 5 -21 56 -19 28 -50
73 -68 100 -46 69 -62 81 -76 58 -13 -23 -14 -8 -1 17 10 19 -1 36 -74 115
-38 42 -124 162 -131 185 -7 22 -9 22 -20 7 -16 -23 -25 -3 -18 38 4 19 2 26
-5 21 -7 -4 -10 -2 -7 6 8 19 -70 92 -87 83 -7 -5 -10 -5 -6 0 10 11 -44 56
-60 50 -7 -3 -10 -1 -7 5 8 12 -32 33 -48 24 -6 -4 -9 -4 -5 1 11 11 -60 58
-74 49 -7 -4 -8 -3 -4 4 3 6 -3 16 -14 22 -11 6 -20 7 -20 3 0 -4 -6 1 -13 12
-8 10 -19 15 -26 11 -7 -4 -10 -2 -9 5 2 6 -3 14 -11 17 -9 3 -11 0 -6 -8 5
-9 4 -11 -4 -6 -6 4 -9 11 -7 15 8 12 -53 53 -66 45 -6 -4 -8 -3 -5 3 4 6 -8
20 -26 31 -17 11 -86 57 -152 102 -129 88 -154 103 -140 79 5 -8 5 -11 -1 -6
-5 5 -9 14 -9 20 -1 7 -6 11 -13 9 -7 -1 -12 2 -12 6 0 8 -73 56 -207 136 -35
21 -68 34 -74 30 -7 -4 -9 -3 -6 3 7 12 -40 36 -54 28 -5 -4 -9 -1 -9 4 0 8
-263 11 -867 11 l-868 -1 -120 -72z m1900 3 c3 -6 -1 -7 -9 -4 -18 7 -21 14
-7 14 6 0 13 -4 16 -10z m115 -25 c0 -2 -6 -5 -13 -8 -8 -3 -14 1 -14 8 0 7 6
11 14 8 7 -3 13 -6 13 -8z m82 -53 c4 -4 -14 -7 -40 -8 -26 0 -41 1 -34 4 7 2
10 7 7 12 -6 9 56 3 67 -8z m62 -64 c-5 -7 -1 -9 9 -5 23 9 22 0 -1 -12 -15
-8 -18 -6 -18 14 0 13 4 21 8 19 5 -3 5 -10 2 -16z m261 -157 c7 -12 -12 -24
-25 -16 -11 7 -4 25 10 25 5 0 11 -4 15 -9z m555 -371 c0 -5 -5 -10 -11 -10
-5 0 -7 5 -4 10 3 6 8 10 11 10 2 0 4 -4 4 -10z m184 -268 l19 -27 -26 24
c-15 14 -27 19 -27 13 0 -6 5 -14 10 -17 6 -3 10 -12 10 -18 -1 -7 -10 -1 -21
12 -15 19 -17 26 -7 32 19 12 21 11 42 -19z m67 -105 c-10 -9 -11 -8 -5 6 3
10 9 15 12 12 3 -3 0 -11 -7 -18z m134 -156 c-3 -6 3 -14 12 -20 10 -5 14 -13
10 -17 -9 -9 -37 27 -31 38 3 5 7 8 10 8 3 0 3 -4 -1 -9z m5 -66 c0 -5 -5 -3
-10 5 -5 8 -10 20 -10 25 0 6 5 3 10 -5 5 -8 10 -19 10 -25z m70 -30 c0 -5 -4
-4 -9 4 -5 7 -13 11 -17 8 -5 -3 -10 7 -11 21 l-1 26 19 -24 c10 -14 19 -29
19 -35z m167 -326 c-6 -10 -13 -16 -16 -13 -3 2 0 9 6 15 6 6 9 19 6 28 -4 13
-3 13 5 2 7 -10 7 -20 -1 -32z m62 -59 c11 -24 11 -24 -3 -6 -9 11 -16 24 -16
30 0 12 5 7 19 -24z m84 -145 c4 -8 2 -17 -3 -20 -6 -4 -10 3 -10 14 0 25 6
27 13 6z m41 -85 c-6 -5 -24 21 -24 34 0 6 6 1 14 -10 8 -10 12 -21 10 -24z
m-2363 -37 c-11 -21 -49 -63 -57 -63 -5 0 58 79 64 80 1 0 -2 -8 -7 -17z m214
-43 c-14 -22 -24 -43 -23 -47 6 -21 -79 -126 -95 -116 -6 3 -7 1 -4 -4 4 -6
-1 -17 -10 -24 -14 -12 -16 -12 -8 0 5 10 4 12 -3 7 -7 -4 -12 -12 -12 -18 0
-14 -30 -48 -43 -48 -5 0 -3 8 4 18 13 15 12 16 -3 4 -10 -8 -16 -18 -15 -24
3 -15 -155 -122 -248 -168 -78 -39 -158 -60 -336 -89 -87 -14 -117 -12 -54 4
47 12 48 13 15 14 -30 1 -106 -14 -185 -35 -11 -3 12 12 50 34 103 57 154 90
206 133 25 21 50 35 54 31 5 -4 5 -1 1 6 -11 18 75 106 87 89 6 -8 7 -6 3 6
-8 25 3 45 22 41 11 -3 26 8 42 32 13 20 26 31 28 25 2 -6 -4 -18 -12 -27 -19
-19 -19 -21 -4 -30 7 -4 8 -3 4 4 -4 7 10 22 34 37 22 14 40 32 40 41 0 9 7
14 18 12 9 -1 23 1 30 5 27 18 10 -10 -24 -36 -19 -16 -33 -31 -31 -34 8 -8
74 32 107 65 17 18 42 37 53 43 16 8 14 4 -7 -15 -16 -14 -33 -26 -37 -26 -4
0 -10 -8 -13 -17 -3 -10 -22 -29 -41 -42 -20 -13 -33 -26 -31 -28 7 -7 80 30
93 47 6 8 15 12 19 8 4 -4 1 -14 -6 -23 -10 -12 -10 -15 2 -15 15 0 41 38 37
56 -5 28 4 24 14 -6 9 -26 18 -34 32 -32 11 1 31 4 44 6 13 2 28 11 33 20 10
18 43 22 53 6 3 -5 0 -10 -7 -10 -8 0 -7 -6 5 -17 13 -13 20 -14 29 -5 9 9 7
16 -7 32 -17 19 -17 20 4 28 21 8 101 97 101 113 0 5 5 9 10 9 6 0 -1 -18 -15
-40z m2204 -4 c7 -8 8 -17 3 -20 -6 -3 -12 3 -15 14 -6 24 -4 25 12 6z m-1382
-23 c-4 -3 -1 -13 6 -21 11 -13 9 -14 -10 -1 -16 9 -19 16 -10 21 15 9 23 10
14 1z m58 -3 c3 -5 2 -10 -4 -10 -5 0 -13 5 -16 10 -3 6 -2 10 4 10 5 0 13 -4
16 -10z m-1230 -20 c-10 -11 -21 -18 -23 -15 -3 3 3 12 14 20 27 20 30 18 9
-5z m-75 -10 c0 -5 -2 -10 -4 -10 -3 0 -8 5 -11 10 -3 6 -1 10 4 10 6 0 11 -4
11 -10z m1348 -10 c7 -11 9 -20 4 -20 -4 0 -13 9 -20 20 -7 11 -9 20 -4 20 4
0 13 -9 20 -20z m-1398 -19 c-6 -12 -17 -21 -25 -21 -18 0 -19 9 -4 30 9 13
10 12 5 -2 -3 -10 -1 -18 4 -18 5 0 12 9 15 21 4 11 9 18 12 16 2 -3 0 -15 -7
-26z m1370 14 c11 -13 10 -14 -4 -9 -9 3 -16 10 -16 15 0 13 6 11 20 -6z
m1380 -24 c0 -6 -4 -12 -8 -15 -5 -3 -9 1 -9 9 0 8 4 15 9 15 4 0 8 -4 8 -9z
m-2370 -31 c0 -5 -4 -10 -10 -10 -5 0 -10 5 -10 10 0 6 5 10 10 10 6 0 10 -4
10 -10z m407 -44 c-8 -55 -56 -199 -69 -207 -6 -4 -9 -12 -6 -20 2 -7 22 18
43 54 22 37 43 67 48 67 5 0 6 7 3 16 -5 12 -2 15 10 10 16 -6 44 15 44 33 0
6 5 11 11 11 6 0 8 -9 4 -21 -6 -18 -5 -20 14 -10 17 9 21 9 21 -3 0 -8 -6
-17 -12 -20 -7 -3 -3 -3 8 -1 17 4 23 0 28 -20 12 -48 -27 -213 -99 -420 -14
-39 42 51 68 110 25 58 66 212 68 258 1 21 1 20 8 -3 4 -14 5 -29 1 -35 -4 -5
-10 -37 -14 -70 -6 -59 -6 -59 8 -27 8 17 17 32 20 32 5 0 -36 -123 -43 -130
-4 -3 -8 -14 -9 -25 -7 -38 -110 -220 -133 -235 -13 -9 -40 -80 -34 -90 15
-24 -123 -179 -145 -165 -7 4 -16 2 -20 -6 -5 -7 -46 -18 -94 -24 l-86 -12 0
23 c0 13 10 30 22 38 12 9 18 16 12 16 -6 0 -27 -15 -46 -34 -19 -18 -53 -45
-75 -59 -23 -15 -45 -32 -49 -39 -4 -7 2 -5 13 5 18 16 53 24 53 12 0 -3 -17
-29 -39 -58 -46 -63 -143 -153 -197 -185 -50 -29 -130 -98 -94 -81 33 16 183
124 199 143 8 9 17 14 21 11 8 -5 82 80 120 138 15 21 31 35 38 32 8 -3 35 -5
60 -5 30 0 56 -7 71 -19 23 -18 24 -20 9 -43 -9 -14 -39 -83 -68 -153 -54
-135 -157 -345 -169 -345 -4 0 -3 35 1 77 13 121 4 108 -16 -23 -23 -150 -51
-209 -134 -292 l-64 -63 29 -67 c38 -91 113 -204 154 -233 28 -19 26 -15 -13
24 -78 78 -174 293 -123 273 10 -3 15 1 15 13 0 10 10 26 21 37 12 10 41 52
64 92 l43 74 10 -44 10 -43 -1 55 c-1 48 6 71 62 185 76 155 120 251 132 285
4 14 15 43 24 65 l16 40 -6 -45 c-4 -32 -2 -41 5 -30 6 10 8 -2 3 -40 -11 -98
5 -48 22 70 9 63 18 116 19 118 8 7 36 -12 36 -25 0 -12 2 -12 16 1 20 21 84
22 84 1 0 -24 -77 -204 -118 -275 -21 -36 -48 -85 -61 -110 -13 -25 -39 -67
-58 -93 -25 -36 -29 -46 -14 -38 11 6 22 15 25 20 3 5 40 25 82 46 42 20 74
39 70 42 -3 3 -33 -7 -66 -24 -33 -16 -60 -27 -60 -23 0 3 17 35 39 71 47 77
61 84 227 98 l119 9 -142 -2 -141 -2 38 75 c20 42 48 105 61 141 12 36 26 67
30 70 4 3 59 2 121 -1 62 -4 160 -9 218 -12 100 -5 106 -6 128 -34 76 -91 155
-211 200 -304 29 -58 61 -114 72 -124 13 -12 7 7 -20 59 -46 88 -54 132 -12
65 53 -84 114 -200 108 -206 -3 -4 -6 -1 -6 5 0 14 -138 85 -230 119 l-65 24
48 -4 c26 -3 47 -3 47 -1 0 1 -24 9 -52 17 -206 59 -580 42 -655 -29 -11 -10
-39 -37 -62 -58 -28 -26 -41 -46 -38 -58 3 -9 -2 -23 -10 -30 -18 -14 -73 -94
-73 -104 0 -4 14 11 31 34 41 56 67 58 39 2 -27 -53 -10 -51 53 6 28 25 69 55
91 66 l41 21 -20 -23 c-27 -30 -29 -176 -2 -234 15 -34 19 -37 30 -23 6 9 25
21 41 27 24 9 32 7 49 -7 18 -16 20 -16 14 -1 -3 9 -2 32 4 50 6 22 6 34 -1
36 -12 4 -14 22 -2 22 17 0 52 -80 46 -105 -4 -15 -2 -25 5 -25 6 0 11 5 11
12 0 6 10 3 21 -8 21 -19 22 -19 15 3 -8 24 5 35 42 39 13 2 30 8 38 15 18 14
30 4 39 -32 5 -21 0 -33 -25 -58 -17 -17 -27 -31 -21 -31 6 0 25 16 42 35 31
34 59 46 59 24 0 -5 5 -7 11 -4 6 4 8 20 4 38 -5 24 -4 28 4 17 19 -27 11 4
-10 39 -36 60 -7 111 45 78 30 -20 37 -73 11 -83 -8 -4 -15 -15 -15 -26 0 -19
1 -19 20 3 16 20 19 21 20 7 0 -11 8 -18 19 -18 14 0 18 -5 14 -19 -3 -10 1
-22 8 -27 9 -5 11 -2 6 9 -3 9 -3 18 1 21 4 3 8 -3 9 -12 1 -9 7 -30 14 -47
l12 -30 21 45 c29 62 28 167 -1 233 -12 26 -20 47 -19 47 2 0 34 -11 70 -25
78 -29 109 -47 154 -89 26 -24 32 -38 32 -70 l0 -40 30 34 c16 19 32 43 35 53
4 9 13 17 21 17 17 0 19 -30 2 -31 -10 0 -10 -2 -1 -5 7 -3 9 -12 6 -20 -5
-13 -7 -13 -14 -2 -7 10 -9 9 -9 -5 0 -20 -35 -95 -75 -157 -21 -34 -23 -41
-8 -27 12 10 35 45 52 78 18 32 33 59 35 59 6 0 -13 -121 -24 -156 -21 -62
-59 -125 -109 -180 -25 -27 -17 -21 19 16 88 88 142 205 164 353 l7 48 46 -40
c24 -22 61 -50 81 -61 30 -17 25 -10 -26 37 -45 42 -64 67 -69 92 -6 31 -5 33
18 27 22 -6 23 -6 4 5 -11 7 -21 13 -22 13 -1 1 4 42 12 91 8 50 14 106 14
125 -1 32 -2 30 -15 -20 -8 -30 -20 -84 -28 -120 l-13 -65 -37 40 c-58 63
-185 293 -213 387 -13 46 -31 101 -39 122 l-14 39 70 -6 c107 -9 117 -17 182
-142 32 -60 57 -107 58 -102 0 4 -22 52 -50 107 -27 55 -50 105 -50 111 0 12
78 3 93 -10 4 -4 18 -49 30 -99 12 -51 25 -92 28 -92 4 0 9 53 13 118 8 141
24 277 38 315 10 25 12 26 24 10 10 -13 13 -14 14 -4 0 18 37 -23 46 -51 3
-11 8 -17 10 -15 3 3 -8 31 -25 63 -29 57 -53 184 -35 184 17 0 202 -202 227
-248 16 -30 35 -96 52 -186 30 -159 27 -193 -11 -126 -33 58 -37 61 -31 25 10
-67 -51 -352 -100 -470 -30 -69 -55 -157 -43 -150 11 7 33 -51 25 -65 -6 -9
-10 -9 -16 1 -7 11 -9 10 -9 -4 0 -16 -30 -69 -50 -87 -3 -3 -23 -26 -45 -51
-29 -32 -25 -30 15 11 31 30 69 72 86 92 l30 38 34 -67 c24 -46 31 -68 22 -71
-7 -2 -10 -8 -6 -13 8 -14 -59 -129 -140 -237 -40 -54 -94 -130 -120 -170 -60
-91 -253 -271 -276 -257 -4 2 -22 -12 -41 -32 -19 -20 -27 -32 -19 -28 51 29
141 94 178 129 23 22 42 37 42 34 0 -3 -20 -39 -45 -79 -25 -40 -45 -77 -45
-82 0 -17 -162 -331 -211 -409 -125 -196 -237 -327 -429 -498 -243 -217 -669
-510 -742 -510 -88 0 -510 190 -778 350 -352 211 -537 393 -760 746 -30 47
-75 104 -100 126 -69 61 -69 68 -2 49 32 -9 73 -25 92 -37 70 -41 74 -34 12
22 -51 46 -71 73 -106 148 -44 92 -60 136 -47 136 3 0 23 -9 43 -20 63 -34
225 -100 244 -100 11 0 1 10 -27 28 -70 45 -129 117 -158 196 l-9 23 61 -13
c34 -7 98 -13 142 -12 l80 1 -75 8 c-117 12 -182 41 -254 113 -91 89 -137 176
-152 282 l-6 49 38 -35 38 -35 -27 35 c-34 44 -58 97 -62 134 -3 29 -2 29 42
-20 24 -27 42 -40 38 -29 -23 68 -19 80 36 136 30 30 78 69 107 87 l54 33 -7
-84 c-7 -79 -5 -87 21 -141 32 -65 54 -90 47 -53 -6 31 17 41 47 20 13 -10 19
-21 15 -32 -5 -13 -4 -13 6 -4 10 10 8 19 -9 43 -12 16 -22 34 -22 39 0 13 41
36 58 32 10 -1 12 4 7 18 -12 38 4 22 25 -26 11 -26 18 -54 15 -62 -4 -9 4 -6
18 7 l25 23 27 -28 c20 -20 24 -22 17 -7 -9 16 -7 28 8 52 16 26 26 32 54 32
41 0 71 -37 61 -77 -4 -16 -2 -22 5 -18 15 9 44 68 41 84 -1 8 2 10 10 5 7 -4
-2 13 -21 39 -32 45 -32 47 -16 72 21 32 29 32 59 -6 20 -26 23 -38 17 -65 -9
-40 7 -50 32 -20 l18 21 25 -30 c14 -16 25 -40 25 -53 0 -43 18 -13 24 42 7
49 -6 129 -31 192 -8 22 23 12 96 -32 31 -19 67 -34 80 -34 23 0 23 0 -5 22
-32 25 -64 61 -59 66 2 2 23 -6 47 -18 l43 -21 -25 23 c-14 13 -44 38 -65 56
l-40 33 40 -22 c22 -12 47 -26 55 -33 23 -17 -4 17 -63 78 -27 28 -75 86 -108
128 -63 82 -189 302 -189 330 0 16 10 20 98 32 19 3 28 -6 47 -43 27 -52 34
-50 8 4 -9 19 -15 36 -12 38 10 10 99 16 99 7 0 -13 49 -19 183 -22 66 -2 118
1 120 6 7 22 34 -5 46 -45 15 -51 110 -243 117 -237 2 3 -12 38 -32 79 -38 77
-64 144 -64 163 0 6 8 -5 18 -24 22 -46 38 -40 33 13 l-3 42 22 -25 22 -25 -7
24 c-6 18 -4 22 6 15 12 -7 12 -5 0 9 -7 9 -16 15 -20 13 -4 -3 -7 4 -7 13 0
15 4 16 17 8 10 -6 16 -14 13 -18 -2 -4 3 -10 12 -13 10 -4 13 -13 9 -25 -3
-11 -1 -22 4 -26 7 -3 8 0 5 9 -3 9 -2 16 4 16 10 0 26 -29 23 -43 -1 -5 3 -6
9 -2 6 4 17 -9 25 -28 12 -30 12 -44 -6 -127 -10 -51 -19 -104 -19 -117 0 -35
-15 -28 -35 17 -10 22 -20 39 -22 37 -2 -3 6 -26 18 -53 11 -27 24 -67 28 -89
l7 -40 8 55 c16 113 131 621 147 650 7 12 10 11 15 -8 6 -22 8 -20 24 16 12
27 38 54 81 85 35 25 78 60 94 78 l30 33 -43 -35 c-55 -43 -125 -89 -130 -84
-8 8 19 44 38 50 15 5 28 34 56 121 19 64 33 122 30 130 -3 9 -1 12 4 9 6 -3
10 2 10 13 0 42 267 383 282 360 6 -10 8 -9 8 3 0 9 7 19 15 22 19 8 27 -37
29 -158 l1 -94 -34 -35 c-19 -20 -32 -36 -28 -36 3 0 18 12 32 28 l26 27 -7
-85 c-8 -108 3 -100 16 11 6 46 20 125 31 174 12 50 25 135 31 190 13 148 14
155 21 161 3 3 4 -18 1 -47 l-4 -54 20 24 c19 22 22 23 33 7 11 -15 14 -13 26
19 13 36 14 37 58 33 42 -3 44 -2 40 19 -2 13 0 23 4 23 5 0 9 -14 9 -31 0
-17 4 -28 10 -24 6 3 10 19 10 36 0 16 3 29 6 29 4 0 4 -20 1 -44z m303 -36
c6 -11 8 -20 6 -20 -3 0 -10 9 -16 20 -6 11 -8 20 -6 20 3 0 10 -9 16 -20z
m-1740 6 c0 -2 -8 -10 -17 -17 -16 -13 -17 -12 -4 4 13 16 21 21 21 13z m1490
-15 c0 -6 -4 -13 -10 -16 -5 -3 -10 1 -10 9 0 9 5 16 10 16 6 0 10 -4 10 -9z
m-1597 -68 l-17 -28 28 25 29 25 -18 -27 c-9 -16 -24 -28 -31 -28 -18 0 -18
10 2 38 22 31 28 27 7 -5z m407 16 c0 -8 5 -8 15 1 26 21 16 -4 -15 -40 l-29
-35 -1 36 c0 20 3 39 7 42 10 11 23 8 23 -4z m1756 -31 c-2 -10 0 -21 5 -24 6
-3 7 -15 4 -27 -5 -17 -4 -19 4 -7 6 8 11 23 11 33 0 9 5 17 10 17 6 0 10 -7
10 -15 0 -9 6 -15 14 -13 16 4 158 -89 206 -134 19 -19 43 -49 54 -67 38 -69
57 -325 36 -488 -25 -185 -22 -178 -36 -72 -7 52 -22 124 -34 160 -18 54 -107
234 -180 363 -11 20 -17 44 -14 53 5 14 4 15 -4 4 -8 -11 -16 -3 -36 37 -14
28 -26 58 -26 67 0 8 -4 15 -9 15 -10 0 -24 43 -25 81 -1 15 -8 35 -16 44 -14
17 -14 17 8 4 14 -9 21 -21 18 -31z m-1886 -8 c0 -5 -4 -10 -10 -10 -5 0 -10
5 -10 10 0 6 5 10 10 10 6 0 10 -4 10 -10z m-319 -52 c-16 -18 -41 -46 -55
-61 -14 -15 -26 -24 -26 -18 0 5 7 16 15 24 8 8 11 18 7 22 -4 5 -2 6 4 2 5
-3 23 10 39 29 16 19 33 34 38 34 5 0 -5 -15 -22 -32z m301 23 c9 -1 -23 -84
-37 -93 -5 -4 -6 -8 -2 -8 5 0 0 -14 -10 -31 -19 -33 -58 -58 -89 -58 -10 0
-39 -3 -62 -7 -25 -3 -69 0 -104 7 -52 12 -57 15 -42 26 10 7 14 13 10 13 -4
0 -4 5 -1 10 4 6 12 4 21 -5 20 -19 37 -9 29 16 -4 13 -2 19 8 19 8 0 17 9 20
21 4 13 12 19 24 18 25 -5 43 9 43 33 0 14 5 18 15 14 8 -3 19 2 24 12 15 27
25 6 24 -56 l-1 -57 15 48 c12 41 33 65 33 37 0 -23 21 -8 26 19 6 27 14 30
56 22z m-210 -57 c-6 -11 -11 -13 -16 -5 -4 6 -2 11 3 11 6 0 11 8 12 18 0 9
3 12 5 5 3 -7 1 -20 -4 -29z m-370 -7 c3 -35 16 -35 21 1 2 15 4 -7 5 -48 1
-85 -16 -228 -28 -235 -5 -3 -9 68 -10 157 0 89 2 160 5 157 3 -3 6 -18 7 -32z
m45 11 c-3 -8 -6 -5 -6 6 -1 11 2 17 5 13 3 -3 4 -12 1 -19z m2040 -10 c-3 -8
-6 -5 -6 6 -1 11 2 17 5 13 3 -3 4 -12 1 -19z m-1813 -54 c9 -8 16 -21 16 -27
-1 -7 -9 -2 -20 11 l-19 22 -15 -22 c-9 -12 -16 -18 -16 -14 0 9 29 46 36 46
1 0 10 -7 18 -16z m2038 -123 c31 -24 66 -61 77 -82 26 -46 40 -177 41 -380
l0 -145 -62 4 c-43 3 -69 10 -84 23 -11 11 -23 17 -26 13 -3 -3 -9 0 -14 7 -5
8 -3 10 6 4 15 -10 18 -15 -53 125 -63 124 -68 132 -63 104 6 -27 50 -122 82
-173 15 -24 22 -41 16 -37 -29 18 -150 248 -167 316 -6 25 -6 25 11 5 16 -19
16 -19 10 8 -5 20 4 62 28 135 20 59 38 129 41 155 l6 48 47 -43 c26 -24 73
-63 104 -87z m635 64 c10 -8 61 -46 114 -85 65 -47 102 -82 113 -105 17 -34
56 -177 51 -183 -1 -1 -14 2 -29 7 -32 13 -33 7 -2 -30 44 -52 133 -124 190
-154 30 -16 54 -30 53 -31 -2 -2 -34 4 -72 13 -133 30 -291 132 -405 262 -70
79 -96 128 -104 194 -8 69 4 110 35 118 36 10 37 10 56 -6z m-3095 -28 c15 -4
30 -3 33 3 3 5 1 10 -6 10 -7 0 -10 3 -6 6 3 4 14 3 24 -1 10 -5 20 -9 23 -9
10 -2 47 -43 53 -59 3 -9 2 -73 -2 -142 -8 -120 -10 -128 -42 -175 -19 -27
-36 -46 -40 -42 -7 8 -50 151 -67 222 -18 73 -35 191 -28 197 3 4 6 -5 6 -18
0 -18 3 -20 9 -10 5 8 7 21 4 30 -3 10 -2 12 4 5 4 -6 20 -14 35 -17z m438 -6
c41 -6 88 -12 104 -14 16 -1 32 -8 34 -16 3 -8 0 -11 -7 -7 -7 4 -9 2 -5 -8 3
-8 -6 -35 -20 -60 -14 -25 -24 -46 -21 -46 2 0 -5 -21 -15 -46 -27 -62 -25
-89 3 -42 24 42 35 45 76 23 16 -8 38 -12 50 -10 14 3 21 -1 21 -12 0 -15 2
-14 18 0 26 24 36 21 18 -4 -22 -32 -92 -69 -171 -89 -64 -17 -67 -18 -30 -19
103 -2 202 34 280 103 33 29 44 32 50 14 8 -27 12 -334 4 -362 -8 -28 -65 -96
-79 -96 -4 0 -12 10 -18 23 -10 20 -10 19 -6 -9 8 -43 -29 -65 -126 -75 -41
-5 -87 -11 -102 -15 -22 -5 -29 -2 -34 12 -3 11 -9 26 -13 34 -4 8 -14 40 -21
70 -16 68 -33 102 -23 45 3 -22 7 -47 8 -55 0 -9 4 -21 9 -28 4 -6 3 -12 -2
-12 -4 0 -16 16 -26 36 -22 47 -31 38 -11 -11 9 -20 15 -39 12 -41 -2 -2 -32
-8 -68 -13 -35 -5 -72 -12 -81 -16 -14 -6 -22 3 -38 40 -22 52 -34 117 -50
282 -9 97 -8 121 6 180 19 73 17 75 55 -30 11 -32 23 -57 25 -54 2 2 -5 36
-16 76 -11 40 -17 78 -13 84 8 13 9 17 12 45 2 15 3 14 11 -3 5 -11 9 -15 9
-8 1 6 4 19 8 29 5 12 3 15 -6 9 -10 -6 -11 -3 -2 13 6 12 17 24 24 28 8 5 7
2 -2 -9 -8 -10 -10 -21 -6 -25 4 -4 10 -1 12 6 3 7 17 25 32 40 14 14 25 30
23 34 -3 12 22 37 28 28 3 -4 39 -13 80 -19z m2226 -9 c6 -4 18 -20 27 -37 34
-65 135 -282 145 -315 6 -19 25 -79 42 -133 17 -54 28 -102 25 -107 -9 -15
-25 -12 -25 4 0 8 -13 50 -30 93 -16 43 -44 117 -61 165 -18 49 -34 87 -35 85
-8 -7 79 -310 110 -387 19 -47 33 -87 31 -88 -2 -2 -44 11 -94 28 -50 18 -114
37 -143 44 l-53 11 -3 59 c-2 44 0 56 9 50 9 -5 10 -2 4 12 -4 10 -14 93 -21
184 -7 91 -17 187 -22 213 -8 38 -7 50 4 54 7 2 18 2 24 -2 7 -4 14 2 17 14 5
18 8 19 21 9 13 -11 15 -10 10 10 -4 12 -2 20 3 16 5 -3 9 -1 9 5 0 5 -6 12
-12 14 -7 3 -8 6 -3 6 6 0 15 -3 21 -7z m-1306 -69 c0 -71 -52 -235 -119 -376
-30 -62 -52 -93 -88 -123 -164 -136 -448 -247 -588 -229 -71 8 -59 18 42 35
68 11 98 25 169 80 76 59 148 188 203 366 29 97 32 101 68 116 191 79 249 110
280 152 23 30 33 24 33 -21z m-1603 5 c-3 -8 -6 -5 -6 6 -1 11 2 17 5 13 3 -3
4 -12 1 -19z m-2 -225 c-10 -98 -21 -188 -26 -201 -11 -29 -47 -42 -117 -42
-46 -1 -53 -3 -38 -11 26 -16 112 -2 158 23 21 12 49 38 62 57 49 73 81 127
108 184 30 63 43 71 51 30 3 -16 10 -46 16 -68 16 -64 15 -144 -4 -225 -23
-101 -65 -242 -77 -257 -5 -6 -29 -18 -54 -27 -41 -14 -44 -13 -45 2 -1 14 -2
14 -6 1 -4 -15 -52 -49 -70 -49 -9 0 -4 62 20 210 l13 85 34 6 c31 6 29 7 -16
8 l-51 1 -12 -157 c-6 -86 -14 -161 -18 -166 -5 -8 -127 -67 -139 -67 -3 0
-18 21 -35 48 -19 28 -28 37 -24 22 16 -54 58 -120 88 -139 38 -24 102 -100
69 -82 -43 23 -197 180 -245 251 -107 156 -147 232 -193 365 -14 39 -24 70
-23 70 1 0 -3 18 -9 40 -20 79 -23 101 -13 85 8 -12 12 -9 21 14 10 27 11 28
29 12 17 -16 19 -16 25 1 7 17 8 17 22 -2 15 -19 15 -18 9 10 l-7 30 18 -24
c9 -13 17 -37 17 -52 0 -16 4 -26 9 -23 5 3 8 2 7 -3 -2 -8 13 -50 31 -88 20
-42 98 -251 105 -282 13 -62 25 -45 25 34 1 103 22 239 45 283 10 19 43 67 74
107 31 39 76 100 101 135 43 62 46 64 63 47 18 -17 18 -23 2 -196z m-415 128
c-1 -9 -7 -1 -15 18 -19 44 -19 64 0 27 8 -15 15 -36 15 -45z m29 2 c-11 -50
-11 -61 2 -43 11 17 2 -49 -12 -88 -5 -13 -9 -38 -10 -55 0 -31 -1 -31 -10 -8
-5 13 -11 36 -13 50 -1 14 -8 38 -14 53 -6 15 -9 35 -6 43 4 8 1 15 -5 15 -8
0 -8 4 1 14 8 9 17 11 23 5 16 -15 23 -10 30 21 4 17 10 30 15 30 4 0 4 -17
-1 -37z m22 -10 c-8 -15 -10 -15 -11 -2 0 17 10 32 18 25 2 -3 -1 -13 -7 -23z
m4848 -46 c-1 -21 -3 -25 -6 -12 -3 11 -9 25 -14 31 -5 6 -6 14 -3 17 13 13
24 -5 23 -36z m-2014 -129 c71 -127 145 -242 156 -246 20 -8 7 -24 -13 -19
-13 3 -95 11 -183 18 -88 6 -165 14 -172 18 -8 4 3 50 38 156 28 83 55 155 61
160 8 7 9 6 4 -2 -4 -8 2 -7 21 2 15 8 28 15 29 15 1 0 27 -46 59 -102z
m-2772 -155 l-16 -122 -38 112 c-39 113 -49 158 -29 127 8 -12 10 -11 10 8 0
12 5 22 10 22 6 0 10 -8 10 -17 0 -13 5 -11 22 10 l22 28 12 -24 c10 -18 9
-48 -3 -144z m677 114 c0 -24 5 -80 10 -126 6 -46 9 -85 6 -88 -2 -2 -23 35
-46 83 -44 93 -45 112 -9 157 27 35 39 26 39 -26z m1153 -42 c-3 -9 -8 -14
-10 -11 -3 3 -2 9 2 15 9 16 15 13 8 -4z m714 -32 c-3 -10 -8 -39 -12 -65 l-6
-48 -46 0 -45 0 45 44 c25 23 48 53 52 65 8 25 18 29 12 4z m-1883 -188 c15
-33 31 -67 35 -75 7 -13 -10 -19 -96 -38 -58 -13 -108 -21 -110 -18 -3 3 1 11
8 19 8 8 36 57 64 110 55 107 51 107 99 2z m1719 68 c-7 -2 -19 -2 -25 0 -7 3
-2 5 12 5 14 0 19 -2 13 -5z m-2761 -93 c40 -93 42 -245 6 -515 -26 -201 -32
-217 -47 -146 -6 30 -16 87 -22 125 -5 39 -16 85 -24 101 -7 17 -19 44 -26 60
-6 17 -13 24 -16 18 -3 -7 3 -27 11 -45 30 -59 31 -101 3 -161 -27 -59 -77
-138 -77 -122 0 6 -9 -3 -19 -20 -25 -40 -98 -109 -82 -77 6 12 16 22 21 22 6
0 10 5 10 10 0 7 -8 7 -22 -1 -22 -12 -22 -11 -5 8 9 11 14 23 10 28 -5 4 -1
6 8 2 12 -4 16 -1 12 11 -2 10 1 38 7 62 6 25 16 68 21 95 9 43 38 155 69 260
5 17 12 53 16 80 3 28 10 55 14 60 4 6 15 50 25 98 10 49 24 95 31 102 8 7 14
19 14 26 0 20 41 -33 62 -81z m920 35 c-9 -19 -18 -32 -20 -30 -7 6 19 65 28
65 4 0 0 -16 -8 -35z m4425 13 c-3 -8 -6 -5 -6 6 -1 11 2 17 5 13 3 -3 4 -12
1 -19z m-1507 -16 c0 -15 -2 -15 -10 -2 -13 20 -13 33 0 25 6 -3 10 -14 10
-23z m650 -176 c30 -61 62 -148 80 -219 l31 -119 -21 -34 c-20 -35 -20 -35 -1
-29 18 5 19 2 15 -32 l-4 -38 10 33 c6 17 13 32 15 32 10 0 -9 -66 -22 -77 -9
-7 -11 -13 -4 -18 6 -3 11 -15 11 -26 0 -10 5 -18 11 -17 7 2 11 -30 12 -97 2
-92 5 -105 37 -170 43 -88 45 -94 28 -72 -14 18 -54 14 -42 -4 3 -5 10 -7 15
-4 5 4 12 -1 15 -10 4 -11 13 -14 28 -9 20 6 21 6 2 -9 -17 -12 -22 -12 -33
-1 -8 7 -22 19 -31 27 -9 7 -33 31 -52 52 -19 22 -28 34 -20 28 7 -7 18 -13
23 -13 5 0 -3 10 -19 23 -16 12 -32 21 -37 19 -5 -1 -6 2 -2 8 3 5 3 15 -1 21
-5 8 -9 8 -14 -1 -5 -8 -9 -7 -13 5 -4 9 -3 13 3 10 17 -10 11 5 -10 28 -11
12 -18 27 -16 34 3 7 1 13 -4 13 -5 0 -6 7 -3 17 4 10 2 14 -5 9 -14 -8 -25
28 -17 57 7 22 7 22 -10 2 -12 -15 -15 -16 -12 -4 3 9 2 20 -2 25 -23 26 -34
98 -41 274 -8 173 -21 328 -35 413 -3 15 -1 26 4 22 5 -3 7 5 4 17 -10 49 79
-67 127 -166z m-3593 112 c-3 -8 -6 -5 -6 6 -1 11 2 17 5 13 3 -3 4 -12 1 -19z
m2607 -10 c8 -50 15 -138 11 -138 -2 0 -30 38 -64 85 l-61 85 55 0 c53 0 54 0
59 -32z m-1500 -3 c21 -14 22 -19 14 -82 -4 -38 -12 -69 -17 -71 -6 -2 -7 -11
-4 -20 4 -9 -11 4 -33 28 -21 25 -41 47 -44 50 -3 3 -16 17 -29 32 l-23 26 31
16 c17 9 31 14 31 11 0 -4 10 1 22 9 27 19 24 19 52 1z m-1945 -67 c0 12 6 22
12 22 7 0 9 -35 5 -112 -3 -62 -6 -125 -6 -140 -1 -16 -5 -28 -10 -28 -6 0
-10 40 -10 93 0 50 -2 117 -5 147 -3 41 -2 47 4 25 7 -25 9 -26 10 -7z m1121
-110 c19 -39 52 -98 73 -130 20 -32 37 -60 37 -61 0 -1 -20 -1 -45 1 -83 7
-523 -103 -502 -125 3 -2 14 0 26 6 45 24 255 71 324 72 50 1 63 3 42 8 l-30
7 40 7 c63 11 130 8 144 -5 11 -11 13 -10 7 2 -5 8 9 -5 30 -30 21 -25 63 -72
94 -105 47 -51 49 -54 12 -22 -23 20 -47 37 -53 37 -5 0 -8 4 -5 9 10 16 -25
22 -183 28 -125 5 -173 3 -241 -11 -135 -27 -190 -47 -190 -68 0 -10 -7 -18
-15 -18 -15 0 -101 -48 -150 -84 -55 -41 -59 -40 -34 4 13 23 43 58 67 78 46
37 51 59 6 23 -15 -12 -29 -19 -31 -17 -3 2 16 39 41 83 25 43 70 125 100 183
30 58 64 114 75 125 15 12 67 29 149 46 183 39 171 41 212 -43z m-977 10 c43
-37 56 -78 57 -168 0 -55 -1 -57 -59 -114 l-58 -57 -12 101 c-12 109 -14 232
-5 267 7 26 19 22 77 -29z m520 -120 c-27 -58 -56 -116 -65 -129 -16 -24 -16
-24 -23 24 -4 27 -4 76 1 109 l9 61 60 23 c33 12 61 21 63 19 2 -1 -19 -50
-45 -107z m4699 47 c3 -13 1 -22 -3 -19 -9 5 -13 44 -5 44 2 0 6 -11 8 -25z
m-4807 -153 c-3 -3 -13 5 -22 19 -9 13 -34 41 -56 62 -34 33 -37 39 -21 43 11
3 37 13 59 23 l40 18 3 -80 c2 -44 0 -82 -3 -85z m-19 -44 c14 -21 4 -81 -18
-120 -14 -24 -32 -64 -42 -90 -17 -47 -31 -59 -38 -36 -3 7 -7 2 -10 -10 -4
-15 -3 -20 5 -15 9 5 9 3 0 -8 -6 -8 -25 -41 -42 -72 -35 -67 -142 -230 -154
-236 -4 -1 -25 -21 -45 -43 -33 -36 -37 -38 -49 -22 -16 22 -17 10 -2 -18 8
-15 8 -19 0 -14 -7 4 -11 -1 -11 -13 0 -25 13 -27 31 -5 11 14 16 12 41 -17
31 -35 35 -32 13 10 -14 27 -13 31 14 68 30 41 77 83 93 83 5 0 6 -4 3 -10 -3
-5 0 -10 7 -10 7 0 13 11 13 24 0 13 -3 22 -7 20 -3 -2 -4 5 -1 15 3 12 11 17
19 14 8 -3 14 0 14 7 0 16 25 6 26 -11 1 -8 3 -16 4 -19 2 -5 5 -23 15 -80 18
-104 70 -199 163 -301 l51 -55 -49 -3 c-78 -3 -177 31 -265 92 -59 41 -144
120 -139 128 3 5 -3 6 -12 2 -14 -5 -16 -3 -11 11 4 9 3 15 -2 11 -14 -8 -42
6 -34 17 9 15 5 110 -12 283 -8 83 -16 191 -17 240 l-4 90 55 53 c66 64 62 68
85 -103 7 -60 14 -98 15 -83 1 15 6 30 12 34 6 3 9 17 6 30 -2 13 -1 21 3 19
4 -2 24 48 45 113 21 64 47 127 58 139 l20 22 74 -61 c41 -34 76 -66 79 -70z
m3769 52 c-4 -12 -9 -19 -12 -17 -3 3 -2 15 2 27 4 12 9 19 12 17 3 -3 2 -15
-2 -27z m-4311 -19 c-4 -17 -9 -30 -11 -27 -3 2 -2 19 2 36 9 41 17 33 9 -9z
m-17 -63 c-3 -8 -6 -5 -6 6 -1 11 2 17 5 13 3 -3 4 -12 1 -19z m2728 2 c-10
-11 -23 -20 -29 -20 -6 0 0 9 14 20 32 25 38 25 15 0z m-3118 -12 c-3 -8 -6
-5 -6 6 -1 11 2 17 5 13 3 -3 4 -12 1 -19z m4624 -115 c-11 -104 -22 -155 -54
-253 -19 -56 -20 -32 -7 98 20 195 43 293 63 273 7 -7 6 -45 -2 -118z m356 35
c-3 -8 -6 -5 -6 6 -1 11 2 17 5 13 3 -3 4 -12 1 -19z m860 0 c-3 -8 -6 -5 -6
6 -1 11 2 17 5 13 3 -3 4 -12 1 -19z m-1331 -105 c-4 -65 -9 -131 -11 -148 -3
-21 0 -16 10 14 15 44 33 74 22 36 -19 -64 -20 -78 -6 -70 11 6 12 5 2 -6 -7
-7 -13 -20 -13 -28 0 -14 1 -14 10 -1 5 8 10 11 10 5 0 -5 -4 -16 -8 -23 -10
-15 -82 131 -82 166 0 22 60 172 68 172 3 0 1 -53 -2 -117z m-4519 85 c-3 -8
-6 -5 -6 6 -1 11 2 17 5 13 3 -3 4 -12 1 -19z m3263 2 c-12 -23 -30 -27 -30
-7 0 17 10 27 27 27 11 0 11 -5 3 -20z m1748 -75 l1 -20 -9 20 c-5 11 -8 34
-8 50 l0 30 8 -30 c4 -16 8 -39 8 -50z m-31 43 c-3 -8 -6 -5 -6 6 -1 11 2 17
5 13 3 -3 4 -12 1 -19z m-4560 -20 c-3 -8 -6 -5 -6 6 -1 11 2 17 5 13 3 -3 4
-12 1 -19z m-20 -10 c-3 -8 -6 -5 -6 6 -1 11 2 17 5 13 3 -3 4 -12 1 -19z m-7
-55 c0 -23 -4 -33 -9 -27 -9 8 -4 64 5 64 2 0 4 -17 4 -37z m19 -110 c0 -60
-3 -113 -7 -120 -6 -9 -6 25 -2 205 0 12 2 22 4 22 2 0 4 -48 5 -107z m4372
53 c5 -6 9 -18 9 -29 0 -10 4 -16 9 -12 6 3 6 -5 1 -22 -19 -64 -65 -152 -116
-221 -30 -41 -54 -79 -54 -84 0 -5 -4 -6 -10 -3 -5 3 -10 -2 -10 -12 -1 -19
-38 -93 -41 -80 -1 4 -3 19 -4 35 -2 15 -6 45 -9 67 -3 22 -1 42 4 45 5 3 10
29 11 58 2 55 18 62 20 9 1 -31 1 -31 10 8 13 52 34 74 24 25 -4 -26 -3 -31 4
-20 9 12 11 9 11 -13 0 -16 -4 -26 -9 -23 -5 3 -8 -16 -9 -42 0 -44 1 -45 11
-19 6 15 14 27 18 27 5 0 11 16 15 35 4 20 10 32 17 28 6 -3 7 -1 3 5 -4 6 12
70 34 142 22 72 41 135 41 138 1 4 3 -2 6 -13 3 -11 9 -24 14 -29z m-4354 -23
c-3 -10 -5 -2 -5 17 0 19 2 27 5 18 2 -10 2 -26 0 -35z m-41 -41 c-7 -7 -24
62 -17 73 3 5 9 -8 13 -29 5 -22 6 -41 4 -44z m771 41 c-3 -10 -5 -4 -5 12 0
17 2 24 5 18 2 -7 2 -21 0 -30z m3862 -23 c1 -13 0 -13 -9 0 -5 8 -9 24 -9 35
l0 20 9 -20 c5 -11 9 -27 9 -35z m-384 -7 c-9 -93 -17 -126 -26 -112 -6 10 -9
5 -10 -16 -1 -25 -3 -26 -6 -7 -3 13 1 30 7 37 7 8 10 21 7 30 -4 8 -2 17 3
20 6 4 10 19 10 35 0 28 8 60 16 60 2 0 1 -21 -1 -47z m-2988 15 c-3 -8 -6 -5
-6 6 -1 11 2 17 5 13 3 -3 4 -12 1 -19z m-2084 -23 c-3 -9 -8 -14 -10 -11 -3
3 -2 9 2 15 9 16 15 13 8 -4z m874 -7 c-3 -8 -6 -5 -6 6 -1 11 2 17 5 13 3 -3
4 -12 1 -19z m-937 -59 c-60 -54 -157 -129 -166 -129 -3 0 6 10 21 22 15 11
40 39 56 61 16 22 29 35 29 28 0 -7 5 -9 10 -6 6 3 10 13 10 21 0 8 -4 12 -10
9 -5 -3 -10 -1 -10 4 0 11 19 15 52 12 9 -1 19 3 23 9 3 5 12 10 18 10 7 -1
-8 -19 -33 -41z m939 -76 c0 -68 3 -109 10 -111 14 -5 14 -27 0 -75 -10 -38
-11 -38 -28 -20 -15 15 -16 22 -6 48 8 20 10 49 5 85 -4 30 -3 68 1 85 5 16 9
45 9 62 0 18 2 33 5 33 3 0 5 -48 4 -107z m4208 -5 c-3 -8 -6 -5 -6 6 -1 11 2
17 5 13 3 -3 4 -12 1 -19z m103 -131 c-29 -192 -90 -364 -161 -459 -31 -41
-197 -180 -319 -266 -98 -69 -193 -84 -246 -39 l-28 24 20 38 c18 35 27 40 78
52 62 14 230 83 222 91 -3 2 -45 -11 -94 -31 -102 -41 -162 -55 -162 -38 0 19
38 88 68 123 15 18 33 42 40 53 7 11 21 33 31 49 l19 28 7 -56 c5 -38 11 -54
19 -49 6 4 20 9 30 10 33 5 31 13 -2 13 -32 0 -32 1 -32 49 0 50 25 111 46
111 6 0 17 -6 23 -14 17 -20 69 -37 77 -25 3 5 2 8 -3 7 -5 -2 -22 8 -38 21
-17 13 -23 22 -15 19 8 -3 20 2 26 10 9 13 12 13 17 -2 4 -10 3 -15 -3 -11 -6
3 -10 1 -10 -4 0 -21 21 -11 30 14 5 14 16 25 24 25 8 0 24 12 35 28 11 15 21
22 21 16 0 -6 -11 -23 -25 -38 -14 -15 -25 -32 -25 -39 0 -6 16 6 35 26 19 20
35 44 35 52 0 21 14 19 36 -6 10 -12 32 -28 48 -36 l29 -15 -21 27 c-21 26
-21 27 -2 69 10 24 52 94 94 156 42 62 77 118 77 124 1 6 4 1 6 -12 2 -12 -1
-55 -7 -95z m-216 -157 l8 -55 -21 30 c-25 35 -45 99 -43 135 1 14 10 40 19
58 l18 33 6 -73 c3 -40 9 -98 13 -128z m-4134 154 c0 -14 -4 -23 -10 -19 -5 3
-10 15 -10 26 0 10 5 19 10 19 6 0 10 -12 10 -26z m4734 10 c3 -8 2 -12 -4 -9
-6 3 -10 10 -10 16 0 14 7 11 14 -7z m31 6 c3 -5 1 -10 -4 -10 -6 0 -11 5 -11
10 0 6 2 10 4 10 3 0 8 -4 11 -10z m56 -34 c20 -14 48 -28 63 -32 47 -11 21
-15 -30 -4 -27 6 -57 18 -66 27 -10 9 -18 13 -18 9 0 -4 -5 -4 -11 0 -8 4 -7
9 2 15 19 12 20 12 60 -15z m-4924 -18 c-3 -7 -5 -2 -5 12 0 14 2 19 5 13 2
-7 2 -19 0 -25z m89 -35 c-3 -4 -6 -1 -6 5 0 7 -4 12 -10 12 -5 0 -10 -7 -10
-15 0 -8 5 -15 10 -15 6 0 10 -13 10 -30 0 -16 4 -30 9 -30 5 0 7 9 4 20 -8
31 11 24 26 -10 7 -17 10 -43 7 -58 -5 -20 -4 -23 4 -12 5 8 10 11 11 5 1 -5
2 -14 3 -20 0 -5 7 -20 14 -33 8 -13 20 -49 28 -80 8 -31 26 -81 40 -110 14
-30 26 -62 27 -73 1 -10 6 -19 11 -19 5 0 6 -3 3 -6 -3 -4 -1 -16 4 -28 6 -11
-25 15 -69 58 -45 44 -78 84 -75 89 3 6 2 7 -4 4 -5 -3 -17 3 -26 14 -9 10
-14 19 -11 19 3 0 -2 7 -11 16 -9 9 -14 23 -11 30 3 8 -1 14 -10 14 -11 0 -14
6 -10 16 3 8 2 12 -4 9 -6 -3 -10 -3 -10 2 0 4 -3 19 -5 33 -5 22 -4 22 4 5 8
-17 10 -17 10 -3 1 9 -3 20 -9 23 -5 3 -10 19 -10 36 0 16 -4 29 -10 29 -5 0
-10 9 -10 20 0 11 7 20 15 20 8 0 15 -7 15 -16 0 -12 3 -14 13 -6 16 14 14 72
-4 82 -7 5 -11 10 -9 12 35 23 45 25 53 11 5 -8 6 -17 3 -20z m81 5 c-3 -7 -5
-2 -5 12 0 14 2 19 5 13 2 -7 2 -19 0 -25z m-170 -25 c-3 -10 -5 -4 -5 12 0
17 2 24 5 18 2 -7 2 -21 0 -30z m286 -37 c13 -13 53 -45 88 -71 35 -27 56 -45
47 -42 -11 4 -18 2 -18 -6 0 -7 8 -20 18 -28 21 -20 77 -92 77 -100 0 -6 28
-52 81 -134 21 -33 74 -91 74 -81 0 6 -11 21 -23 35 -38 41 -108 161 -128 216
-9 27 -16 51 -15 52 1 1 20 -4 43 -12 23 -8 72 -19 110 -25 98 -15 101 -17
124 -63 12 -23 37 -64 56 -90 19 -27 32 -51 29 -54 -8 -8 -167 82 -205 116
-45 41 -60 39 -28 -2 14 -19 34 -60 45 -93 28 -85 42 -113 80 -167 19 -26 32
-50 29 -53 -9 -9 -193 75 -255 117 -79 52 -114 85 -156 147 -63 91 -113 221
-100 256 3 9 2 16 -3 16 -6 0 -10 13 -9 30 1 33 6 36 24 18 8 -8 12 -8 12 -1
0 15 -25 34 -35 25 -5 -4 -5 -1 -1 6 10 16 11 16 39 -12z m-738 -36 c-7 -21
10 -28 18 -7 3 7 6 7 6 1 2 -31 -165 -161 -229 -179 -21 -5 -20 -3 8 14 32 21
80 69 131 130 13 16 29 27 36 24 7 -2 16 5 20 16 3 12 9 21 11 21 3 0 2 -9 -1
-20z m4512 -43 c0 -8 -6 -14 -14 -14 -9 0 -10 4 -2 14 6 7 12 13 14 13 1 0 2
-6 2 -13z m503 -47 l8 25 1 -25 c1 -20 3 -22 11 -10 8 12 10 9 10 -12 0 -15 4
-29 9 -32 5 -3 7 16 5 42 l-4 47 15 -58 c8 -31 21 -70 30 -86 8 -17 12 -38 9
-48 -4 -13 -3 -15 4 -4 11 15 27 -2 17 -19 -4 -6 -1 -9 7 -8 7 2 12 -5 12 -14
-1 -10 2 -15 8 -12 5 3 23 -9 41 -26 18 -18 55 -43 82 -57 46 -22 47 -24 15
-18 -113 21 -150 38 -215 97 -36 33 -68 71 -71 84 -3 13 -9 22 -13 20 -4 -3
-6 10 -4 27 2 18 4 55 5 82 0 42 1 45 6 15 5 -33 5 -34 12 -10z m-518 -12 c-7
-7 -12 -8 -12 -2 0 14 12 26 19 19 2 -3 -1 -11 -7 -17z m468 -9 c0 -11 7 -19
16 -19 13 0 14 -3 5 -14 -6 -7 -8 -22 -5 -32 4 -11 3 -16 -1 -11 -5 4 -9 15
-10 25 -1 9 -5 25 -9 35 -14 39 -15 48 -6 42 6 -3 10 -15 10 -26z m-4217 -134
c4 -8 0 -27 -8 -42 -13 -24 -15 -25 -15 -7 0 11 5 25 12 32 9 9 9 12 0 12 -7
0 -12 5 -12 10 0 15 17 12 23 -5z m-209 -18 c-1 -9 2 -14 7 -11 5 3 14 -8 21
-23 7 -15 19 -32 28 -37 8 -6 38 -31 66 -58 28 -26 58 -48 67 -48 9 0 29 -12
45 -27 50 -49 101 -93 106 -93 3 0 23 19 45 43 l40 42 27 -25 c14 -14 60 -60
101 -102 42 -43 79 -78 84 -78 4 0 9 8 11 18 3 12 12 4 31 -30 15 -25 34 -52
42 -58 27 -22 16 -32 -27 -25 -93 14 -253 47 -291 61 -62 22 -56 9 7 -15 68
-25 244 -61 302 -61 38 0 45 -4 59 -30 20 -39 19 -53 -6 -76 -16 -15 -36 -19
-88 -19 -57 1 -79 7 -156 43 -106 51 -293 161 -352 209 -87 70 -174 243 -190
377 -5 39 -3 48 8 44 8 -3 13 -12 13 -21z m223 -24 c-4 -3 1 -12 11 -20 9 -8
11 -12 5 -8 -7 3 -13 2 -13 -3 0 -6 7 -12 15 -16 21 -8 19 -49 -4 -77 l-19
-24 -7 40 c-3 22 -8 48 -10 58 -2 9 1 17 7 17 5 0 6 5 3 10 -6 10 2 30 12 30
4 0 3 -3 0 -7z m-1710 -75 c-3 -8 -6 -5 -6 6 -1 11 2 17 5 13 3 -3 4 -12 1
-19z m1757 -83 c3 -8 1 -15 -4 -15 -6 0 -10 7 -10 15 0 8 2 15 4 15 2 0 6 -7
10 -15z m80 -40 c-4 -8 -1 -15 5 -15 6 0 11 4 11 9 0 5 8 12 17 16 12 4 7 -5
-12 -27 -17 -18 -31 -35 -33 -38 -3 -5 -22 21 -22 32 0 7 29 38 35 38 3 0 2
-7 -1 -15z m-368 -128 c-3 -16 -16 -41 -27 -55 l-22 -27 6 25 c4 14 12 49 19
79 10 47 13 51 21 30 4 -13 6 -37 3 -52z m3076 -832 c22 -25 22 -55 3 -179 -8
-53 -21 -190 -30 -304 -9 -114 -25 -268 -36 -342 -11 -74 -22 -162 -24 -195
-5 -60 -5 -60 15 25 15 70 18 77 17 38 -1 -25 1 -44 6 -41 4 2 7 -15 8 -39 1
-24 5 -54 9 -68 8 -24 8 -24 9 7 1 45 16 49 62 16 22 -15 47 -32 57 -38 9 -5
78 -65 154 -132 75 -68 142 -123 148 -123 6 0 9 -4 6 -9 -7 -11 81 -54 95 -46
5 4 12 -1 15 -9 3 -9 10 -16 15 -16 14 0 44 -31 58 -58 26 -49 -8 -151 -94
-287 -31 -49 -85 -149 -120 -221 -37 -79 -70 -134 -81 -138 -12 -5 -15 -9 -7
-14 13 -8 7 -22 -76 -172 -29 -52 -64 -108 -79 -123 -50 -54 -315 -175 -517
-237 -185 -57 -310 -81 -491 -95 -141 -11 -386 50 -592 146 -166 77 -485 274
-523 323 -37 47 -67 126 -60 154 6 21 1 38 -21 71 -37 59 -37 90 0 92 l27 2
-27 4 c-14 2 -31 10 -36 16 -6 7 -32 82 -59 167 -52 162 -90 350 -80 392 9 36
83 123 131 154 23 15 53 36 69 46 15 10 32 16 37 13 10 -6 28 7 114 85 112
102 128 115 147 122 16 6 19 3 20 -20 l1 -27 14 32 c17 39 26 45 56 38 15 -4
24 -14 26 -29 1 -13 5 -33 10 -46 23 -62 -17 567 -53 829 -8 58 -12 108 -10
112 3 4 22 10 42 14 21 3 49 9 62 12 18 4 22 3 16 -7 -5 -8 -3 -11 6 -8 14 5
150 -48 159 -62 3 -4 23 -17 45 -28 22 -11 56 -32 75 -47 47 -35 201 -186 318
-313 104 -111 123 -126 151 -117 10 3 69 63 132 133 241 269 396 418 568 545
68 51 72 51 113 2z m2057 -805 c-43 -80 -136 -206 -146 -196 -3 3 13 33 36 67
22 33 38 66 34 72 -3 5 -1 7 4 4 6 -4 32 24 59 63 26 39 49 70 51 70 3 0 -15
-36 -38 -80z m-6053 8 c16 -24 32 -47 37 -53 36 -48 167 -265 159 -265 -4 0
-2 -4 5 -8 12 -7 98 -162 90 -162 -2 0 -25 32 -51 71 -27 40 -67 95 -89 123
-23 28 -53 74 -67 101 -14 28 -29 53 -34 56 -5 4 -5 12 -2 18 4 6 3 11 -2 11
-5 0 -12 8 -16 18 -3 9 -11 26 -18 37 -47 75 -57 95 -50 95 5 0 22 -19 38 -42z
m1364 -668 c0 -5 -5 -10 -11 -10 -5 0 -7 5 -4 10 3 6 8 10 11 10 2 0 4 -4 4
-10z m3300 -244 c0 -3 -4 -8 -10 -11 -5 -3 -10 -1 -10 4 0 6 5 11 10 11 6 0
10 -2 10 -4z m110 -121 c-6 -15 -13 -26 -15 -23 -3 2 1 19 8 37 6 17 13 28 15
23 1 -5 -2 -22 -8 -37z m-175 -5 c19 -7 19 -8 2 -15 -12 -5 -24 -2 -35 9 -13
13 -14 16 -2 15 8 0 24 -4 35 -9z m-3208 -82 c-2 -13 -4 -5 -4 17 -1 22 1 32
4 23 2 -10 2 -28 0 -40z m311 45 c-9 -2 -18 -13 -20 -24 -3 -17 -4 -16 -15 6
-11 24 -10 25 20 24 18 -1 24 -3 15 -6z m5 -83 c-4 -17 -23 -29 -23 -16 0 2
-3 11 -6 20 -4 11 0 16 14 16 15 0 19 -5 15 -20z m-3 -64 c0 -8 3 -23 6 -33 3
-10 -2 -7 -10 7 -18 30 -20 40 -6 40 6 0 10 -6 10 -14z m-288 -48 c-9 -9 -12
-7 -12 12 0 19 3 21 12 12 9 -9 9 -15 0 -24z m328 -84 c0 -8 -4 -14 -10 -14
-5 0 -10 9 -10 21 0 11 5 17 10 14 6 -3 10 -13 10 -21z m2640 -84 c51 -18 52
-19 15 -14 -74 10 -95 16 -95 25 0 13 18 11 80 -11z m200 -40 c0 -5 -2 -10 -4
-10 -3 0 -8 5 -11 10 -3 6 -1 10 4 10 6 0 11 -4 11 -10z m-2750 -110 c0 -5 -2
-10 -4 -10 -3 0 -8 5 -11 10 -3 6 -1 10 4 10 6 0 11 -4 11 -10z m-110 -24 c0
-3 -4 -8 -10 -11 -5 -3 -10 -1 -10 4 0 6 5 11 10 11 6 0 10 -2 10 -4z m-70
-36 c-19 -13 -30 -13 -30 0 0 6 10 10 23 10 18 0 19 -2 7 -10z m220 -36 c21
-49 26 -70 9 -41 -17 29 -40 87 -34 87 3 0 15 -21 25 -46z m196 -49 c17 -30
17 -30 -3 -10 -11 11 -30 38 -43 60 l-22 40 25 -30 c14 -16 33 -43 43 -60z
m2234 -105 c0 -13 -20 -13 -40 0 -12 8 -9 10 13 10 15 0 27 -4 27 -10z m-2330
-960 c0 -5 -2 -10 -4 -10 -3 0 -8 5 -11 10 -3 6 -1 10 4 10 6 0 11 -4 11 -10z
m-308 -195 c1 -30 0 -55 -4 -55 -5 0 -8 15 -8 33 0 17 -3 42 -6 55 -4 12 -2
22 4 22 6 0 12 -25 14 -55z m328 19 c0 -8 -5 -12 -10 -9 -6 4 -8 11 -5 16 9
14 15 11 15 -7z m-320 -114 c0 -16 -2 -30 -4 -30 -2 0 -6 14 -8 30 -3 17 -1
30 4 30 4 0 8 -13 8 -30z m330 26 c0 -3 -4 -8 -10 -11 -5 -3 -10 -1 -10 4 0 6
5 11 10 11 6 0 10 -2 10 -4z m1889 -101 c0 -5 -6 1 -14 15 -8 14 -14 34 -14
45 0 13 5 8 14 -15 7 -19 14 -39 14 -45z m-82 33 c-3 -7 -5 -2 -5 12 0 14 2
19 5 13 2 -7 2 -19 0 -25z m-27 -14 c0 -13 -3 -24 -7 -24 -5 0 -8 13 -8 29 0
16 3 27 8 24 4 -2 7 -15 7 -29z m47 -11 c-3 -10 -5 -4 -5 12 0 17 2 24 5 18 2
-7 2 -21 0 -30z m-80 -5 c-3 -8 -6 -5 -6 6 -1 11 2 17 5 13 3 -3 4 -12 1 -19z
m150 -65 c-3 -10 -5 -4 -5 12 0 17 2 24 5 18 2 -7 2 -21 0 -30z m13 -37 c0 -3
-4 -8 -10 -11 -5 -3 -10 -1 -10 4 0 6 5 11 10 11 6 0 10 -2 10 -4z m-100 -15
c0 -6 -4 -13 -10 -16 -5 -3 -10 1 -10 9 0 9 5 16 10 16 6 0 10 -4 10 -9z m240
-11 c0 -5 -5 -10 -11 -10 -5 0 -7 5 -4 10 3 6 8 10 11 10 2 0 4 -4 4 -10z
m-2047 -20 c-3 -11 -7 -20 -9 -20 -2 0 -4 9 -4 20 0 11 4 20 9 20 5 0 7 -9 4
-20z m332 11 c3 -5 1 -12 -5 -16 -5 -3 -10 1 -10 9 0 18 6 21 15 7z m1712 -58
c-3 -10 -5 -4 -5 12 0 17 2 24 5 18 2 -7 2 -21 0 -30z"/>
<path d="M5675 8119 c-11 -17 1 -21 15 -4 8 9 8 15 2 15 -6 0 -14 -5 -17 -11z"/>
<path d="M5651 8081 c-8 -5 -9 -11 -3 -15 5 -3 12 1 16 9 6 17 6 18 -13 6z"/>
<path d="M4980 7705 c-39 -9 -46 -13 -25 -13 17 0 48 5 70 13 51 16 27 17 -45
0z"/>
<path d="M5928 7973 c12 -2 32 -2 45 0 12 2 2 4 -23 4 -25 0 -35 -2 -22 -4z"/>
<path d="M5991 7914 c0 -11 3 -14 6 -6 3 7 2 16 -1 19 -3 4 -6 -2 -5 -13z"/>
<path d="M6162 7870 c0 -14 2 -19 5 -12 2 6 2 18 0 25 -3 6 -5 1 -5 -13z"/>
<path d="M6201 7654 c0 -11 3 -14 6 -6 3 7 2 16 -1 19 -3 4 -6 -2 -5 -13z"/>
<path d="M5645 7480 c-10 -11 -16 -22 -14 -24 2 -2 12 7 22 20 22 29 17 32 -8
4z"/>
<path d="M5595 7420 c-10 -11 -16 -22 -14 -24 2 -2 12 7 22 20 22 29 17 32 -8
4z"/>
<path d="M5546 7369 c-11 -11 -15 -19 -9 -19 12 0 38 28 32 34 -2 2 -13 -5
-23 -15z"/>
<path d="M5711 7370 c0 -14 -4 -36 -7 -50 -5 -22 -4 -23 6 -7 6 9 9 32 7 50
-3 25 -4 26 -6 7z"/>
<path d="M5776 6699 c-3 -18 -4 -34 -2 -36 2 -3 7 10 11 27 4 17 5 34 2 36 -2
3 -7 -10 -11 -27z"/>
<path d="M4543 6590 c73 -203 134 -341 158 -356 13 -7 11 3 -5 34 -33 65 -26
73 15 17 51 -72 119 -156 170 -210 l38 -40 -40 -62 c-22 -35 -38 -63 -35 -63
2 0 30 37 63 83 60 83 83 118 68 104 -13 -11 -114 178 -150 280 -10 29 -20 51
-22 49 -2 -1 3 -39 11 -83 15 -88 35 -132 95 -211 25 -34 37 -60 34 -70 -14
-34 -219 221 -310 383 -21 39 -56 111 -78 160 -57 133 -62 127 -12 -15z"/>
<path d="M5572 6670 c0 -19 2 -27 5 -17 2 9 2 25 0 35 -3 9 -5 1 -5 -18z"/>
<path d="M6128 6660 c-59 -3 -110 -9 -114 -12 -3 -4 49 -4 117 -1 91 4 152 0
229 -12 159 -26 172 -27 90 -5 -105 27 -198 36 -322 30z"/>
<path d="M5706 6537 c-39 -67 -98 -189 -93 -193 3 -3 31 45 62 106 54 107 71
155 31 87z"/>
<path d="M7100 6114 c17 -28 -2 -61 -90 -150 -93 -95 -121 -110 -505 -274 -45
-19 64 5 143 31 45 15 82 24 82 19 0 -12 -68 -138 -102 -190 -17 -24 -23 -38
-14 -31 9 8 46 58 82 112 83 123 93 134 184 196 41 28 102 81 136 119 60 69
121 152 113 157 -2 1 -13 9 -23 17 -18 14 -18 14 -6 -6z"/>
<path d="M5220 6079 c-65 -58 -193 -142 -312 -204 -57 -30 -99 -55 -95 -55 19
0 170 72 230 110 35 22 67 40 72 40 11 0 135 111 146 132 13 25 11 23 -41 -23z"/>
<path d="M5267 6080 c-15 -16 -23 -30 -19 -30 5 0 18 14 30 30 13 17 21 30 19
30 -2 0 -16 -13 -30 -30z"/>
<path d="M6469 6004 c-42 -43 -91 -74 -133 -84 l-31 -8 28 -1 c50 -2 112 40
166 112 22 28 7 19 -30 -19z"/>
<path d="M5120 5928 c-22 -32 -22 -32 -1 -14 21 20 22 19 69 -3 66 -32 165
-67 242 -85 99 -24 106 -17 9 9 -95 26 -272 99 -277 115 -6 17 -17 11 -42 -22z"/>
<path d="M4465 5919 c-4 -6 -13 -8 -20 -5 -8 3 -11 -2 -8 -15 7 -24 7 -24 27
6 9 14 14 25 12 25 -3 0 -8 -5 -11 -11z"/>
<path d="M6238 5913 c7 -3 16 -2 19 1 4 3 -2 6 -13 5 -11 0 -14 -3 -6 -6z"/>
<path d="M4002 5890 c-28 -26 -28 -28 9 -73 50 -60 100 -81 184 -74 39 3 86
12 105 21 19 9 26 14 15 10 -62 -18 -129 -26 -171 -19 -36 5 -57 16 -95 52
-54 50 -57 58 -32 85 22 24 12 23 -15 -2z"/>
<path d="M5585 5810 c3 -5 14 -10 23 -10 15 0 15 2 2 10 -20 13 -33 13 -25 0z"/>
<path d="M4730 5800 c-18 -12 -2 -12 25 0 13 6 15 9 5 9 -8 0 -22 -4 -30 -9z"/>
<path d="M3770 5755 c0 -5 56 -35 65 -35 3 0 4 4 1 9 -6 10 -66 33 -66 26z"/>
<path d="M6826 5635 c-32 -49 -246 -188 -264 -171 -3 3 -1 6 5 6 6 0 14 8 18
17 4 13 -2 10 -22 -8 -15 -15 -37 -32 -48 -38 -33 -20 38 -3 129 30 44 16 81
29 83 29 2 0 -1 -8 -6 -19 -22 -40 4 -29 36 16 33 46 33 46 33 17 0 -43 -28
-132 -58 -184 -15 -26 -20 -40 -11 -33 33 27 80 139 95 229 9 49 20 97 26 107
15 29 3 31 -16 2z"/>
<path d="M6679 5453 c-13 -16 -12 -17 4 -4 16 13 21 21 13 21 -2 0 -10 -8 -17
-17z"/>
<path d="M6685 7809 c-4 -6 -5 -12 -2 -15 2 -3 7 2 10 11 7 17 1 20 -8 4z"/>
<path d="M4720 7829 c0 -5 5 -7 10 -4 6 3 10 8 10 11 0 2 -4 4 -10 4 -5 0 -10
-5 -10 -11z"/>
<path d="M4373 7621 c0 -11 5 -18 9 -15 4 3 5 11 1 19 -7 21 -12 19 -10 -4z"/>
<path d="M6761 7404 c0 -11 3 -14 6 -6 3 7 2 16 -1 19 -3 4 -6 -2 -5 -13z"/>
<path d="M3292 7265 c0 -16 2 -22 5 -12 2 9 2 23 0 30 -3 6 -5 -1 -5 -18z"/>
<path d="M3860 7070 c0 -5 7 -7 15 -4 8 4 15 8 15 10 0 2 -7 4 -15 4 -8 0 -15
-4 -15 -10z"/>
<path d="M3698 7053 c7 -3 16 -2 19 1 4 3 -2 6 -13 5 -11 0 -14 -3 -6 -6z"/>
<path d="M3846 6925 c-9 -26 -7 -32 5 -12 6 10 9 21 6 23 -2 3 -7 -2 -11 -11z"/>
<path d="M3675 6858 l-16 -33 20 25 c20 24 26 40 16 40 -2 0 -12 -15 -20 -32z"/>
<path d="M3631 6798 c-40 -65 -42 -72 -12 -38 17 19 31 40 31 47 0 18 -3 16
-19 -9z"/>
<path d="M2945 6650 c-3 -5 -1 -10 4 -10 6 0 11 5 11 10 0 6 -2 10 -4 10 -3 0
-8 -4 -11 -10z"/>
<path d="M2982 6460 c0 -14 2 -19 5 -12 2 6 2 18 0 25 -3 6 -5 1 -5 -13z"/>
<path d="M2910 6311 c0 -7 -4 -10 -9 -7 -5 3 -11 0 -14 -7 -3 -8 1 -14 9 -14
14 0 28 26 19 35 -3 3 -5 0 -5 -7z"/>
<path d="M7671 6474 c0 -11 3 -14 6 -6 3 7 2 16 -1 19 -3 4 -6 -2 -5 -13z"/>
<path d="M7671 6254 c0 -11 3 -14 6 -6 3 7 2 16 -1 19 -3 4 -6 -2 -5 -13z"/>
<path d="M7692 6135 c0 -16 2 -22 5 -12 2 9 2 23 0 30 -3 6 -5 -1 -5 -18z"/>
<path d="M5070 6900 c0 -5 5 -10 11 -10 5 0 7 5 4 10 -3 6 -8 10 -11 10 -2 0
-4 -4 -4 -10z"/>
<path d="M4996 6871 c-17 -19 -17 -19 0 -17 9 2 18 10 20 19 3 21 1 21 -20 -2z"/>
<path d="M3292 6375 c0 -16 2 -22 5 -12 2 9 2 23 0 30 -3 6 -5 -1 -5 -18z"/>
<path d="M3302 6290 c0 -19 3 -57 8 -85 6 -40 7 -43 8 -15 0 19 -3 58 -8 85
-6 40 -7 43 -8 15z"/>
<path d="M3606 6265 c-9 -26 -7 -32 5 -12 6 10 9 21 6 23 -2 3 -7 -2 -11 -11z"/>
<path d="M3446 5871 c-3 -5 1 -14 9 -21 13 -10 15 -9 15 9 0 21 -14 28 -24 12z"/>
<path d="M3326 5843 c-6 -14 -5 -15 5 -6 7 7 10 15 7 18 -3 3 -9 -2 -12 -12z"/>
<path d="M3320 5761 c0 -6 4 -13 10 -16 6 -3 7 1 4 9 -7 18 -14 21 -14 7z"/>
<path d="M7340 5621 c0 -6 4 -13 10 -16 6 -3 7 1 4 9 -7 18 -14 21 -14 7z"/>
<path d="M7245 5442 c-17 -31 -45 -77 -64 -102 l-34 -45 37 35 c34 32 105 155
95 165 -3 2 -18 -22 -34 -53z"/>
<path d="M3126 5634 c-4 -14 -5 -28 -3 -31 3 -2 8 8 11 23 4 14 5 28 3 31 -3
2 -8 -8 -11 -23z"/>
<path d="M3078 5580 c3 -8 11 -23 17 -32 10 -15 11 -13 11 15 -1 23 -6 33 -17
33 -11 0 -15 -6 -11 -16z"/>
<path d="M2560 5621 c0 -7 -4 -9 -10 -6 -5 3 -10 1 -10 -4 0 -6 4 -11 9 -11
13 0 25 20 17 27 -3 4 -6 1 -6 -6z"/>
<path d="M7593 5441 c0 -11 5 -18 9 -15 4 3 5 11 1 19 -7 21 -12 19 -10 -4z"/>
<path d="M3236 5228 c5 -7 9 -15 9 -18 2 -32 84 -169 124 -204 44 -40 29 -6
-35 79 -36 49 -67 98 -68 111 0 12 -9 28 -20 34 -14 9 -16 9 -10 -2z"/>
<path d="M3506 5026 c3 -7 22 -16 42 -20 52 -8 64 -7 57 4 -3 6 -21 10 -40 10
-19 0 -37 5 -40 10 -9 15 -25 12 -19 -4z"/>
<path d="M3440 5140 c0 -5 5 -10 10 -10 6 0 10 5 10 10 0 6 -4 10 -10 10 -5 0
-10 -4 -10 -10z"/>
<path d="M4531 2161 l-44 -18 101 -6 c55 -3 117 -13 138 -22 20 -8 82 -59 138
-113 55 -53 85 -79 67 -57 -45 54 -151 158 -183 179 -21 13 -161 59 -170 55
-2 -1 -23 -9 -47 -18z"/>
<path d="M5998 2133 c6 -2 18 -2 25 0 6 3 1 5 -13 5 -14 0 -19 -2 -12 -5z"/>
<path d="M5938 2123 c6 -2 18 -2 25 0 6 3 1 5 -13 5 -14 0 -19 -2 -12 -5z"/>
<path d="M5835 2109 c-16 -4 -46 -22 -65 -39 l-35 -30 48 26 c27 15 69 32 95
39 39 11 42 13 17 13 -16 0 -43 -4 -60 -9z"/>
<path d="M7620 8970 c6 -11 13 -20 16 -20 2 0 0 9 -6 20 -6 11 -13 20 -16 20
-2 0 0 -9 6 -20z"/>
<path d="M7650 8920 c6 -11 13 -20 16 -20 2 0 0 9 -6 20 -6 11 -13 20 -16 20
-2 0 0 -9 6 -20z"/>
<path d="M7681 8870 c14 -31 19 -36 19 -24 0 6 -7 19 -16 30 -14 18 -14 18 -3
-6z"/>
<path d="M7816 8627 c3 -10 9 -15 12 -12 3 3 0 11 -7 18 -10 9 -11 8 -5 -6z"/>
<path d="M8120 7861 c0 -6 4 -13 10 -16 6 -3 7 1 4 9 -7 18 -14 21 -14 7z"/>
<path d="M8306 7557 c9 -27 18 -46 20 -44 5 5 -16 69 -27 82 -5 5 -2 -12 7
-38z"/>
<path d="M8237 7563 c-4 -3 -7 -11 -7 -17 0 -6 5 -5 12 2 6 6 9 14 7 17 -3 3
-9 2 -12 -2z"/>
<path d="M8731 6021 c-1 -7 8 -79 19 -160 11 -80 24 -177 29 -216 8 -65 9 -66
10 -22 2 71 -30 336 -45 377 -7 19 -13 29 -13 21z"/>
<path d="M8793 5495 c0 -27 2 -38 4 -22 2 15 2 37 0 50 -2 12 -4 0 -4 -28z"/>
<path d="M8790 5364 c0 -84 20 -291 44 -449 l14 -90 1 85 c0 47 -5 126 -13
175 -8 50 -18 144 -21 210 -9 143 -24 187 -25 69z"/>
<path d="M1636 5141 c-4 -7 -5 -15 -2 -18 9 -9 19 4 14 18 -4 11 -6 11 -12 0z"/>
<path d="M1581 4950 c-1 -79 14 -158 54 -295 30 -101 34 -111 30 -65 -9 88
-54 318 -80 405 -2 6 -4 -15 -4 -45z"/>
<path d="M8456 2847 c3 -10 9 -15 12 -12 3 3 0 11 -7 18 -10 9 -11 8 -5 -6z"/>
<path d="M1785 2519 c-68 -30 -111 -59 -88 -59 13 0 163 79 163 86 0 6 2 6
-75 -27z"/>
<path d="M1520 2373 c-25 -15 -54 -38 -65 -51 -10 -14 -14 -23 -9 -20 5 4 43
27 84 52 77 48 69 64 -10 19z"/>
<path d="M8955 2283 c6 -6 144 -97 308 -204 163 -107 320 -209 348 -227 42
-28 50 -31 47 -15 -2 10 -28 31 -59 48 -31 17 -81 50 -112 74 -30 24 -79 54
-108 66 -30 11 -72 38 -94 58 -46 43 -144 111 -230 161 -60 34 -119 57 -100
39z"/>
<path d="M1316 2239 c-40 -31 -24 -35 21 -5 21 15 31 26 22 26 -9 0 -28 -10
-43 -21z"/>
<path d="M9730 1733 c0 -10 79 -155 91 -167 5 -6 9 5 9 28 0 47 -56 146 -82
146 -10 0 -18 -3 -18 -7z"/>
<path d="M5961 734 c0 -11 3 -14 6 -6 3 7 2 16 -1 19 -3 4 -6 -2 -5 -13z"/>
</g>
</svg>
